<mxfile host="app.diagrams.net" modified="2021-06-24T16:22:41.528Z" agent="5.0 (X11)" etag="1SsXqG6JWTzIVXw177jz" version="14.8.1" type="github">
  <diagram id="C5RBs43oDa-KdzZeNtuy" name="Page-1">
    <mxGraphModel dx="2216" dy="898" grid="1" gridSize="10" guides="1" tooltips="1" connect="1" arrows="1" fold="1" page="1" pageScale="1" pageWidth="827" pageHeight="1169" math="0" shadow="0">
      <root>
        <mxCell id="WIyWlLk6GJQsqaUBKTNV-0" />
        <mxCell id="WIyWlLk6GJQsqaUBKTNV-1" parent="WIyWlLk6GJQsqaUBKTNV-0" />
        <mxCell id="9lMKPlvK8jLIYeaEntgu-5" value="Account" style="swimlane;fontStyle=1;align=center;verticalAlign=top;childLayout=stackLayout;horizontal=1;startSize=26;horizontalStack=0;resizeParent=1;resizeParentMax=0;resizeLast=0;collapsible=1;marginBottom=0;" vertex="1" parent="WIyWlLk6GJQsqaUBKTNV-1">
          <mxGeometry x="334" y="60" width="160" height="120" as="geometry" />
        </mxCell>
        <mxCell id="9lMKPlvK8jLIYeaEntgu-6" value="+ id&#xa;+ name&#xa;+ document&#xa;+ email&#xa;+ password&#xa;" style="text;strokeColor=none;fillColor=none;align=left;verticalAlign=top;spacingLeft=4;spacingRight=4;overflow=hidden;rotatable=0;points=[[0,0.5],[1,0.5]];portConstraint=eastwest;" vertex="1" parent="9lMKPlvK8jLIYeaEntgu-5">
          <mxGeometry y="26" width="160" height="84" as="geometry" />
        </mxCell>
        <mxCell id="9lMKPlvK8jLIYeaEntgu-7" value="" style="line;strokeWidth=1;fillColor=none;align=left;verticalAlign=middle;spacingTop=-1;spacingLeft=3;spacingRight=3;rotatable=0;labelPosition=right;points=[];portConstraint=eastwest;" vertex="1" parent="9lMKPlvK8jLIYeaEntgu-5">
          <mxGeometry y="110" width="160" height="10" as="geometry" />
        </mxCell>
        <mxCell id="9lMKPlvK8jLIYeaEntgu-28" value="" style="endArrow=none;html=1;edgeStyle=orthogonalEdgeStyle;entryX=0.5;entryY=0;entryDx=0;entryDy=0;" edge="1" parent="9lMKPlvK8jLIYeaEntgu-5" target="9lMKPlvK8jLIYeaEntgu-13">
          <mxGeometry relative="1" as="geometry">
            <mxPoint x="80" y="119.17000000000002" as="sourcePoint" />
            <mxPoint x="240" y="119.17000000000002" as="targetPoint" />
            <Array as="points">
              <mxPoint x="80" y="130" />
              <mxPoint x="240" y="130" />
            </Array>
          </mxGeometry>
        </mxCell>
        <mxCell id="9lMKPlvK8jLIYeaEntgu-29" value="parent" style="edgeLabel;resizable=0;html=1;align=left;verticalAlign=bottom;" connectable="0" vertex="1" parent="9lMKPlvK8jLIYeaEntgu-28">
          <mxGeometry x="-1" relative="1" as="geometry">
            <mxPoint x="46" y="21" as="offset" />
          </mxGeometry>
        </mxCell>
        <mxCell id="9lMKPlvK8jLIYeaEntgu-30" value="child" style="edgeLabel;resizable=0;html=1;align=right;verticalAlign=bottom;" connectable="0" vertex="1" parent="9lMKPlvK8jLIYeaEntgu-28">
          <mxGeometry x="1" relative="1" as="geometry">
            <mxPoint x="16" y="-10" as="offset" />
          </mxGeometry>
        </mxCell>
        <mxCell id="9lMKPlvK8jLIYeaEntgu-9" value="User" style="swimlane;fontStyle=1;align=center;verticalAlign=top;childLayout=stackLayout;horizontal=1;startSize=26;horizontalStack=0;resizeParent=1;resizeParentMax=0;resizeLast=0;collapsible=1;marginBottom=0;" vertex="1" parent="WIyWlLk6GJQsqaUBKTNV-1">
          <mxGeometry x="174" y="240" width="160" height="34" as="geometry" />
        </mxCell>
        <mxCell id="9lMKPlvK8jLIYeaEntgu-11" value="" style="line;strokeWidth=1;fillColor=none;align=left;verticalAlign=middle;spacingTop=-1;spacingLeft=3;spacingRight=3;rotatable=0;labelPosition=right;points=[];portConstraint=eastwest;" vertex="1" parent="9lMKPlvK8jLIYeaEntgu-9">
          <mxGeometry y="26" width="160" height="8" as="geometry" />
        </mxCell>
        <mxCell id="9lMKPlvK8jLIYeaEntgu-13" value="Driver" style="swimlane;fontStyle=1;align=center;verticalAlign=top;childLayout=stackLayout;horizontal=1;startSize=26;horizontalStack=0;resizeParent=1;resizeParentMax=0;resizeLast=0;collapsible=1;marginBottom=0;" vertex="1" parent="WIyWlLk6GJQsqaUBKTNV-1">
          <mxGeometry x="494" y="240" width="160" height="70" as="geometry" />
        </mxCell>
        <mxCell id="9lMKPlvK8jLIYeaEntgu-15" value="" style="line;strokeWidth=1;fillColor=none;align=left;verticalAlign=middle;spacingTop=-1;spacingLeft=3;spacingRight=3;rotatable=0;labelPosition=right;points=[];portConstraint=eastwest;" vertex="1" parent="9lMKPlvK8jLIYeaEntgu-13">
          <mxGeometry y="26" width="160" height="44" as="geometry" />
        </mxCell>
        <mxCell id="9lMKPlvK8jLIYeaEntgu-25" value="" style="endArrow=none;html=1;edgeStyle=orthogonalEdgeStyle;exitX=0.5;exitY=1;exitDx=0;exitDy=0;entryX=0.441;entryY=-0.069;entryDx=0;entryDy=0;entryPerimeter=0;" edge="1" parent="WIyWlLk6GJQsqaUBKTNV-1" source="9lMKPlvK8jLIYeaEntgu-5" target="9lMKPlvK8jLIYeaEntgu-9">
          <mxGeometry relative="1" as="geometry">
            <mxPoint x="200" y="200" as="sourcePoint" />
            <mxPoint x="360" y="200" as="targetPoint" />
            <Array as="points">
              <mxPoint x="414" y="190" />
              <mxPoint x="250" y="190" />
              <mxPoint x="250" y="200" />
              <mxPoint x="245" y="200" />
            </Array>
          </mxGeometry>
        </mxCell>
        <mxCell id="9lMKPlvK8jLIYeaEntgu-26" value="parent" style="edgeLabel;resizable=0;html=1;align=left;verticalAlign=bottom;" connectable="0" vertex="1" parent="9lMKPlvK8jLIYeaEntgu-25">
          <mxGeometry x="-1" relative="1" as="geometry">
            <mxPoint x="-74" y="20" as="offset" />
          </mxGeometry>
        </mxCell>
        <mxCell id="9lMKPlvK8jLIYeaEntgu-27" value="child" style="edgeLabel;resizable=0;html=1;align=right;verticalAlign=bottom;" connectable="0" vertex="1" parent="9lMKPlvK8jLIYeaEntgu-25">
          <mxGeometry x="1" relative="1" as="geometry">
            <mxPoint x="5" y="-7" as="offset" />
          </mxGeometry>
        </mxCell>
        <mxCell id="9lMKPlvK8jLIYeaEntgu-31" value="Card" style="swimlane;fontStyle=0;childLayout=stackLayout;horizontal=1;startSize=26;fillColor=none;horizontalStack=0;resizeParent=1;resizeParentMax=0;resizeLast=0;collapsible=1;marginBottom=0;" vertex="1" parent="WIyWlLk6GJQsqaUBKTNV-1">
          <mxGeometry x="90" y="440" width="140" height="100" as="geometry">
            <mxRectangle x="90" y="680" width="60" height="26" as="alternateBounds" />
          </mxGeometry>
        </mxCell>
        <mxCell id="9lMKPlvK8jLIYeaEntgu-33" value="+ number : integer&#xa;+ cvv : integer&#xa;+ date : string&#xa;" style="text;strokeColor=none;fillColor=none;align=left;verticalAlign=top;spacingLeft=4;spacingRight=4;overflow=hidden;rotatable=0;points=[[0,0.5],[1,0.5]];portConstraint=eastwest;" vertex="1" parent="9lMKPlvK8jLIYeaEntgu-31">
          <mxGeometry y="26" width="140" height="74" as="geometry" />
        </mxCell>
        <mxCell id="9lMKPlvK8jLIYeaEntgu-35" value="PayPal" style="swimlane;fontStyle=0;childLayout=stackLayout;horizontal=1;startSize=26;fillColor=none;horizontalStack=0;resizeParent=1;resizeParentMax=0;resizeLast=0;collapsible=1;marginBottom=0;" vertex="1" parent="WIyWlLk6GJQsqaUBKTNV-1">
          <mxGeometry x="344" y="440" width="140" height="70" as="geometry" />
        </mxCell>
        <mxCell id="9lMKPlvK8jLIYeaEntgu-38" value="+ email : string&#xa;" style="text;strokeColor=none;fillColor=none;align=left;verticalAlign=top;spacingLeft=4;spacingRight=4;overflow=hidden;rotatable=0;points=[[0,0.5],[1,0.5]];portConstraint=eastwest;" vertex="1" parent="9lMKPlvK8jLIYeaEntgu-35">
          <mxGeometry y="26" width="140" height="44" as="geometry" />
        </mxCell>
        <mxCell id="9lMKPlvK8jLIYeaEntgu-39" value="Cash" style="swimlane;fontStyle=0;childLayout=stackLayout;horizontal=1;startSize=26;fillColor=none;horizontalStack=0;resizeParent=1;resizeParentMax=0;resizeLast=0;collapsible=1;marginBottom=0;" vertex="1" parent="WIyWlLk6GJQsqaUBKTNV-1">
          <mxGeometry x="640" y="440" width="140" height="52" as="geometry" />
        </mxCell>
        <mxCell id="9lMKPlvK8jLIYeaEntgu-43" value="Payments" style="swimlane;fontStyle=0;childLayout=stackLayout;horizontal=1;startSize=26;fillColor=none;horizontalStack=0;resizeParent=1;resizeParentMax=0;resizeLast=0;collapsible=1;marginBottom=0;" vertex="1" parent="WIyWlLk6GJQsqaUBKTNV-1">
          <mxGeometry x="344" y="340" width="140" height="52" as="geometry" />
        </mxCell>
        <mxCell id="9lMKPlvK8jLIYeaEntgu-47" value="" style="endArrow=none;html=1;edgeStyle=orthogonalEdgeStyle;entryX=0.5;entryY=0;entryDx=0;entryDy=0;exitX=-0.014;exitY=0.288;exitDx=0;exitDy=0;exitPerimeter=0;" edge="1" parent="9lMKPlvK8jLIYeaEntgu-43">
          <mxGeometry relative="1" as="geometry">
            <mxPoint x="-5.684341886080802e-14" y="33.488000000000056" as="sourcePoint" />
            <mxPoint x="-182.04" y="100" as="targetPoint" />
          </mxGeometry>
        </mxCell>
        <mxCell id="9lMKPlvK8jLIYeaEntgu-48" value="parent" style="edgeLabel;resizable=0;html=1;align=left;verticalAlign=bottom;" connectable="0" vertex="1" parent="9lMKPlvK8jLIYeaEntgu-47">
          <mxGeometry x="-1" relative="1" as="geometry">
            <mxPoint x="-44" y="7" as="offset" />
          </mxGeometry>
        </mxCell>
        <mxCell id="9lMKPlvK8jLIYeaEntgu-49" value="child" style="edgeLabel;resizable=0;html=1;align=right;verticalAlign=bottom;" connectable="0" vertex="1" parent="9lMKPlvK8jLIYeaEntgu-47">
          <mxGeometry x="1" relative="1" as="geometry">
            <mxPoint x="18" y="-10" as="offset" />
          </mxGeometry>
        </mxCell>
        <mxCell id="9lMKPlvK8jLIYeaEntgu-44" value="+ id" style="text;strokeColor=none;fillColor=none;align=left;verticalAlign=top;spacingLeft=4;spacingRight=4;overflow=hidden;rotatable=0;points=[[0,0.5],[1,0.5]];portConstraint=eastwest;" vertex="1" parent="9lMKPlvK8jLIYeaEntgu-43">
          <mxGeometry y="26" width="140" height="26" as="geometry" />
        </mxCell>
        <mxCell id="9lMKPlvK8jLIYeaEntgu-50" value="" style="endArrow=none;html=1;edgeStyle=orthogonalEdgeStyle;exitX=1.015;exitY=0.096;exitDx=0;exitDy=0;exitPerimeter=0;entryX=0.5;entryY=0;entryDx=0;entryDy=0;" edge="1" parent="WIyWlLk6GJQsqaUBKTNV-1" source="9lMKPlvK8jLIYeaEntgu-44" target="9lMKPlvK8jLIYeaEntgu-39">
          <mxGeometry relative="1" as="geometry">
            <mxPoint x="570" y="360" as="sourcePoint" />
            <mxPoint x="730" y="360" as="targetPoint" />
            <Array as="points">
              <mxPoint x="710" y="369" />
            </Array>
          </mxGeometry>
        </mxCell>
        <mxCell id="9lMKPlvK8jLIYeaEntgu-51" value="parent" style="edgeLabel;resizable=0;html=1;align=left;verticalAlign=bottom;" connectable="0" vertex="1" parent="9lMKPlvK8jLIYeaEntgu-50">
          <mxGeometry x="-1" relative="1" as="geometry">
            <mxPoint x="14" y="12" as="offset" />
          </mxGeometry>
        </mxCell>
        <mxCell id="9lMKPlvK8jLIYeaEntgu-52" value="child" style="edgeLabel;resizable=0;html=1;align=right;verticalAlign=bottom;" connectable="0" vertex="1" parent="9lMKPlvK8jLIYeaEntgu-50">
          <mxGeometry x="1" relative="1" as="geometry">
            <mxPoint x="10" y="-20" as="offset" />
          </mxGeometry>
        </mxCell>
        <mxCell id="9lMKPlvK8jLIYeaEntgu-53" value="" style="endArrow=none;html=1;edgeStyle=orthogonalEdgeStyle;entryX=0.5;entryY=0;entryDx=0;entryDy=0;exitX=0.521;exitY=0.994;exitDx=0;exitDy=0;exitPerimeter=0;" edge="1" parent="WIyWlLk6GJQsqaUBKTNV-1" source="9lMKPlvK8jLIYeaEntgu-44" target="9lMKPlvK8jLIYeaEntgu-35">
          <mxGeometry relative="1" as="geometry">
            <mxPoint x="330" y="400" as="sourcePoint" />
            <mxPoint x="490" y="400" as="targetPoint" />
          </mxGeometry>
        </mxCell>
        <mxCell id="9lMKPlvK8jLIYeaEntgu-54" value="parent" style="edgeLabel;resizable=0;html=1;align=left;verticalAlign=bottom;" connectable="0" vertex="1" parent="9lMKPlvK8jLIYeaEntgu-53">
          <mxGeometry x="-1" relative="1" as="geometry">
            <mxPoint x="-17" y="18" as="offset" />
          </mxGeometry>
        </mxCell>
        <mxCell id="9lMKPlvK8jLIYeaEntgu-55" value="child" style="edgeLabel;resizable=0;html=1;align=right;verticalAlign=bottom;" connectable="0" vertex="1" parent="9lMKPlvK8jLIYeaEntgu-53">
          <mxGeometry x="1" relative="1" as="geometry">
            <mxPoint x="16" y="-10" as="offset" />
          </mxGeometry>
        </mxCell>
        <mxCell id="9lMKPlvK8jLIYeaEntgu-74" style="edgeStyle=orthogonalEdgeStyle;rounded=0;orthogonalLoop=1;jettySize=auto;html=1;" edge="1" parent="WIyWlLk6GJQsqaUBKTNV-1" source="9lMKPlvK8jLIYeaEntgu-56" target="9lMKPlvK8jLIYeaEntgu-72">
          <mxGeometry relative="1" as="geometry" />
        </mxCell>
        <mxCell id="9lMKPlvK8jLIYeaEntgu-56" value="UberX" style="swimlane;fontStyle=0;childLayout=stackLayout;horizontal=1;startSize=26;fillColor=none;horizontalStack=0;resizeParent=1;resizeParentMax=0;resizeLast=0;collapsible=1;marginBottom=0;" vertex="1" parent="WIyWlLk6GJQsqaUBKTNV-1">
          <mxGeometry x="10" y="820" width="140" height="120" as="geometry" />
        </mxCell>
        <mxCell id="9lMKPlvK8jLIYeaEntgu-57" value="+ Brand : String&#xa;+ Model : String&#xa;" style="text;strokeColor=none;fillColor=none;align=left;verticalAlign=top;spacingLeft=4;spacingRight=4;overflow=hidden;rotatable=0;points=[[0,0.5],[1,0.5]];portConstraint=eastwest;" vertex="1" parent="9lMKPlvK8jLIYeaEntgu-56">
          <mxGeometry y="26" width="140" height="94" as="geometry" />
        </mxCell>
        <mxCell id="9lMKPlvK8jLIYeaEntgu-76" style="edgeStyle=orthogonalEdgeStyle;rounded=0;orthogonalLoop=1;jettySize=auto;html=1;entryX=-0.002;entryY=0.951;entryDx=0;entryDy=0;entryPerimeter=0;" edge="1" parent="WIyWlLk6GJQsqaUBKTNV-1" source="9lMKPlvK8jLIYeaEntgu-64" target="9lMKPlvK8jLIYeaEntgu-72">
          <mxGeometry relative="1" as="geometry" />
        </mxCell>
        <mxCell id="9lMKPlvK8jLIYeaEntgu-64" value="UberPool" style="swimlane;fontStyle=0;childLayout=stackLayout;horizontal=1;startSize=26;fillColor=none;horizontalStack=0;resizeParent=1;resizeParentMax=0;resizeLast=0;collapsible=1;marginBottom=0;" vertex="1" parent="WIyWlLk6GJQsqaUBKTNV-1">
          <mxGeometry x="220" y="820" width="140" height="120" as="geometry" />
        </mxCell>
        <mxCell id="9lMKPlvK8jLIYeaEntgu-65" value="+ Brand : String&#xa;+ Model : String&#xa;" style="text;strokeColor=none;fillColor=none;align=left;verticalAlign=top;spacingLeft=4;spacingRight=4;overflow=hidden;rotatable=0;points=[[0,0.5],[1,0.5]];portConstraint=eastwest;" vertex="1" parent="9lMKPlvK8jLIYeaEntgu-64">
          <mxGeometry y="26" width="140" height="94" as="geometry" />
        </mxCell>
        <mxCell id="9lMKPlvK8jLIYeaEntgu-77" style="edgeStyle=orthogonalEdgeStyle;rounded=0;orthogonalLoop=1;jettySize=auto;html=1;entryX=1.01;entryY=0.898;entryDx=0;entryDy=0;entryPerimeter=0;" edge="1" parent="WIyWlLk6GJQsqaUBKTNV-1" source="9lMKPlvK8jLIYeaEntgu-66" target="9lMKPlvK8jLIYeaEntgu-72">
          <mxGeometry relative="1" as="geometry">
            <Array as="points">
              <mxPoint x="514" y="634" />
            </Array>
          </mxGeometry>
        </mxCell>
        <mxCell id="9lMKPlvK8jLIYeaEntgu-66" value="UberBlack" style="swimlane;fontStyle=0;childLayout=stackLayout;horizontal=1;startSize=26;fillColor=none;horizontalStack=0;resizeParent=1;resizeParentMax=0;resizeLast=0;collapsible=1;marginBottom=0;" vertex="1" parent="WIyWlLk6GJQsqaUBKTNV-1">
          <mxGeometry x="440" y="820" width="140" height="120" as="geometry" />
        </mxCell>
        <mxCell id="9lMKPlvK8jLIYeaEntgu-67" value="+ typeCarAccepted&#xa;+ seatsMaterial&#xa;" style="text;strokeColor=none;fillColor=none;align=left;verticalAlign=top;spacingLeft=4;spacingRight=4;overflow=hidden;rotatable=0;points=[[0,0.5],[1,0.5]];portConstraint=eastwest;" vertex="1" parent="9lMKPlvK8jLIYeaEntgu-66">
          <mxGeometry y="26" width="140" height="94" as="geometry" />
        </mxCell>
        <mxCell id="9lMKPlvK8jLIYeaEntgu-78" style="edgeStyle=orthogonalEdgeStyle;rounded=0;orthogonalLoop=1;jettySize=auto;html=1;" edge="1" parent="WIyWlLk6GJQsqaUBKTNV-1" source="9lMKPlvK8jLIYeaEntgu-68" target="9lMKPlvK8jLIYeaEntgu-72">
          <mxGeometry relative="1" as="geometry" />
        </mxCell>
        <mxCell id="9lMKPlvK8jLIYeaEntgu-68" value="UberVan" style="swimlane;fontStyle=0;childLayout=stackLayout;horizontal=1;startSize=26;fillColor=none;horizontalStack=0;resizeParent=1;resizeParentMax=0;resizeLast=0;collapsible=1;marginBottom=0;" vertex="1" parent="WIyWlLk6GJQsqaUBKTNV-1">
          <mxGeometry x="660" y="820" width="140" height="120" as="geometry" />
        </mxCell>
        <mxCell id="9lMKPlvK8jLIYeaEntgu-69" value="+ typeCarAccepted&#xa;+ seatsMaterial&#xa;" style="text;strokeColor=none;fillColor=none;align=left;verticalAlign=top;spacingLeft=4;spacingRight=4;overflow=hidden;rotatable=0;points=[[0,0.5],[1,0.5]];portConstraint=eastwest;" vertex="1" parent="9lMKPlvK8jLIYeaEntgu-68">
          <mxGeometry y="26" width="140" height="94" as="geometry" />
        </mxCell>
        <mxCell id="9lMKPlvK8jLIYeaEntgu-70" value="Car" style="swimlane;fontStyle=0;childLayout=stackLayout;horizontal=1;startSize=26;fillColor=none;horizontalStack=0;resizeParent=1;resizeParentMax=0;resizeLast=0;collapsible=1;marginBottom=0;" vertex="1" parent="WIyWlLk6GJQsqaUBKTNV-1">
          <mxGeometry x="354" y="550" width="140" height="90" as="geometry" />
        </mxCell>
        <mxCell id="9lMKPlvK8jLIYeaEntgu-72" value="+ id&#xa;+ license : String&#xa;+ driver : Driver&#xa;+ passenger : Integer&#xa;" style="text;strokeColor=none;fillColor=none;align=left;verticalAlign=top;spacingLeft=4;spacingRight=4;overflow=hidden;rotatable=0;points=[[0,0.5],[1,0.5]];portConstraint=eastwest;" vertex="1" parent="9lMKPlvK8jLIYeaEntgu-70">
          <mxGeometry y="26" width="140" height="64" as="geometry" />
        </mxCell>
      </root>
    </mxGraphModel>
  </diagram>
</mxfile>
